<svg id="Calque_1" data-name="Calque 1" xmlns="http://www.w3.org/2000/svg" xmlns:xlink="http://www.w3.org/1999/xlink" viewBox="0 0 520.20308 161.1407"><defs><style>.cls-1{fill:none;}.cls-2{clip-path:url(#clip-path);}.cls-3{fill:#6233fa;}</style><clipPath id="clip-path" transform="translate(-5.41153 -6.98825)"><rect class="cls-1" x="5.41153" y="6.98825" width="520.20308" height="161.1407"/></clipPath></defs><title>ecal_logo_black</title><g class="cls-2"><path class="cls-3" d="M494.01892,164.96875h31.5957V6.98825h-31.5957Zm-173.3242-80.7959c.4512-5.416,2.0313-8.8017,5.416-11.7363,3.8369-3.1582,9.2529-4.7383,16.0235-4.7383,12.8642,0,19.6347,5.1904,19.6347,13.7666,0,6.3193-2.48239,9.2529-10.832,10.3818l-5.19139.6768c-24.82621,3.6113-59.35551,8.3506-59.35551,39.0449,0,22.5674,19.4082,36.5606,44.2344,36.5606,20.3125,0,29.3398-7.2217,34.7559-12.4131h.2255l.6768,9.2529h28.6631v-.6767c-2.0313-3.6114-2.709-7.6729-2.709-15.3457V94.55475c0-11.0586-.9023-18.0547-2.708-23.6973-6.0938-19.1836-26.4053-25.7285-46.49119-25.7285-28.211,0-49.42581,11.9619-51.00591,38.5927Zm16.4746,61.3867c-11.9619,0-19.4082-5.1904-19.4082-14.8945a12.60368,12.60368,0,0,1,3.61041-9.0283c3.15909-3.1592,9.25289-5.1904,17.82909-7.4473l6.9961-1.8056c8.125-2.0313,13.9931-3.6114,16.7011-4.7393v14.2187c0,5.6417-.4511,7.6729-1.1289,9.7051-3.6103,10.1553-14.4433,13.9912-24.5996,13.9912m-95.9155-58.0019c-3.1592-25.502-24.148-42.4287-53.2622-42.4287-36.78709,0-59.58209,25.5029-59.58209,61.3867,0,36.7871,21.2149,61.3877,59.356,61.3877,30.24219,0,49.877-17.1524,54.39109-42.4297h-30.6938c-2.708,9.2529-8.5762,18.0557-23.02,18.0557-16.47509,0-27.53419-11.2842-27.53419-36.7871,0-24.3741,10.6079-37.4639,26.8569-37.4639,13.542,0,20.53809,9.0264,22.34329,18.2793ZM63.86463,68.14845c15.7979,0,25.503,11.0596,25.9541,25.9541H37.91053c1.354-14.8945,10.833-25.9541,25.9541-25.9541m24.374,62.9678c-3.3852,6.3183-10.1562,12.6387-22.7939,12.6387-14.4443,0-26.4062-8.5762-27.9849-28.8877h84.1807v-2.9346c0-38.1406-18.958-66.8037-57.7759-66.8037-35.6592,0-58.4531,26.4062-58.4531,61.3867,0,34.9824,21.666,61.3877,59.5811,61.3877,27.9858,0,47.1689-14.669,55.2939-36.7871Zm11.7359-124.128H61.60783l-15.3472,29.1133h28.211Z" transform="translate(-5.41153 -6.98825)"/></g></svg>